<svg width="40" height="40" viewBox="0 0 40 40" fill="none" xmlns="http://www.w3.org/2000/svg">
<circle cx="20" cy="20" r="20" fill="#F7F6EC"/>
<path fill-rule="evenodd" clip-rule="evenodd" d="M14.3761 14.5534C14.0713 14.9453 14.099 15.512 14.4592 15.8722L18.5872 19.9999L14.4591 24.1277C14.069 24.5179 14.069 25.1505 14.4591 25.5406L14.5532 25.6237C14.9452 25.9284 15.5119 25.9007 15.872 25.5406L19.9998 21.4125L24.1277 25.5406C24.5178 25.9307 25.1504 25.9307 25.5406 25.5406L25.6237 25.4465C25.9284 25.0546 25.9007 24.4878 25.5406 24.1277L21.4124 19.9999L25.5405 15.8722C25.9306 15.482 25.9306 14.8494 25.5405 14.4593L25.4464 14.3761C25.0545 14.0714 24.4877 14.0991 24.1276 14.4592L19.9998 18.5864L15.8721 14.4592C15.4819 14.0691 14.8494 14.0691 14.4592 14.4592L14.3761 14.5534Z" fill="#50677A"/>
</svg>
