<svg width="24" height="24" viewBox="0 0 24 24" fill="none" xmlns="http://www.w3.org/2000/svg">
<path fill-rule="evenodd" clip-rule="evenodd" d="M5.25151 5.46409C4.88581 5.93441 4.91906 6.61445 5.35124 7.04663L10.3049 12L5.35114 16.9533C4.88295 17.4215 4.88295 18.1806 5.35115 18.6488L5.46409 18.7485C5.93441 19.1142 6.61444 19.0809 7.04663 18.6488L12 13.695L16.9534 18.6488C17.4216 19.1169 18.1807 19.1169 18.6489 18.6488L18.7486 18.5358C19.1143 18.0655 19.081 17.3855 18.6489 16.9533L13.695 12L18.6488 7.04663C19.1169 6.57843 19.1169 5.81935 18.6488 5.35115L18.5358 5.25141C18.0655 4.88572 17.3855 4.91897 16.9533 5.35115L12 10.3037L7.04672 5.35114C6.57853 4.88295 5.81943 4.88295 5.35124 5.35114L5.25151 5.46409Z" fill="#0C395B"/>
</svg>
