<svg width="24" height="24" viewBox="0 0 24 24" fill="none" xmlns="http://www.w3.org/2000/svg">
<path d="M0 4C0 1.79086 1.79086 0 4 0H20C22.2091 0 24 1.79086 24 4V20C24 22.2091 22.2091 24 20 24H4C1.79086 24 0 22.2091 0 20V4Z"/>
<path d="M15.5059 4.32746C15.1805 4.00201 14.6528 4.00201 14.3274 4.32745C14.002 4.65288 14.002 5.18052 14.3274 5.50596L14.9849 6.16351H10.3333C7.11168 6.16351 4.5 8.77517 4.5 11.9968V12.8302C4.5 13.2904 4.8731 13.6635 5.33333 13.6635C5.79357 13.6635 6.16667 13.2904 6.16667 12.8302V11.9968C6.16667 9.69565 8.03215 7.83017 10.3333 7.83017H14.9888L14.3274 8.49164C14.002 8.81708 14.002 9.34472 14.3274 9.67016C14.6528 9.99559 15.1805 9.99558 15.5059 9.67015L17.2933 7.88267C17.7815 7.39451 17.7815 6.60306 17.2933 6.11491L15.5059 4.32746Z" fill="#50677A"/>
<path d="M13.6655 17.8334C16.8871 17.8334 19.4988 15.2217 19.4988 12V11.1667C19.4988 10.7065 19.1257 10.3334 18.6655 10.3334C18.2053 10.3334 17.8321 10.7065 17.8321 11.1667V12C17.8321 14.3012 15.9667 16.1667 13.6655 16.1667H9.00992L9.67143 15.5052C9.99686 15.1797 9.99686 14.6521 9.67142 14.3267C9.34598 14.0012 8.81834 14.0012 8.4929 14.3267L6.70547 16.1141C6.21732 16.6023 6.21732 17.3938 6.70547 17.8819L8.49291 19.6694C8.81834 19.9948 9.34598 19.9948 9.67142 19.6694C9.99686 19.344 9.99686 18.8163 9.67143 18.4909L9.01394 17.8334H13.6655Z" fill="#50677A"/>
</svg>
