<svg width="24" height="24" viewBox="0 0 24 24" fill="none" xmlns="http://www.w3.org/2000/svg">
<path fill-rule="evenodd" clip-rule="evenodd" d="M18.6666 11.1666C18.6666 12.9375 18.0529 14.565 17.0265 15.848L19.2559 18.0774C19.5813 18.4028 19.5813 18.9305 19.2559 19.2559C18.9305 19.5813 18.4028 19.5813 18.0774 19.2559L15.848 17.0265C14.565 18.0529 12.9375 18.6666 11.1666 18.6666C7.02449 18.6666 3.66663 15.3088 3.66663 11.1666C3.66663 7.02449 7.02449 3.66663 11.1666 3.66663C15.3088 3.66663 18.6666 7.02449 18.6666 11.1666ZM11.1666 17C14.3883 17 17 14.3883 17 11.1666C17 7.94497 14.3883 5.33329 11.1666 5.33329C7.94497 5.33329 5.33329 7.94497 5.33329 11.1666C5.33329 14.3883 7.94497 17 11.1666 17Z" fill="#0C395B"/>
</svg>
