<svg width="24" height="24" viewBox="0 0 24 24" fill="none" xmlns="http://www.w3.org/2000/svg">
<path fill-rule="evenodd" clip-rule="evenodd" d="M4.5 6.16666C4.5 6.62689 4.8731 6.99999 5.33333 6.99999H18.6667C19.1269 6.99999 19.5 6.62689 19.5 6.16666C19.5 5.70642 19.1269 5.33332 18.6667 5.33332H16.0244C15.6813 4.36233 14.7552 3.66666 13.6667 3.66666H10.3333C9.24482 3.66666 8.31878 4.36233 7.97559 5.33332H5.33333C4.8731 5.33332 4.5 5.70642 4.5 6.16666ZM5.33333 9.49999C5.33333 9.03976 5.70643 8.66666 6.16667 8.66666H17.8333C18.2936 8.66666 18.6667 9.03976 18.6667 9.49999V17.8333C18.6667 19.2141 17.5474 20.3333 16.1667 20.3333H7.83333C6.45263 20.3333 5.33333 19.2141 5.33333 17.8333V9.49999ZM10.3333 12C10.3333 11.5397 9.96023 11.1667 9.5 11.1667C9.03977 11.1667 8.66667 11.5397 8.66667 12V17C8.66667 17.4602 9.03977 17.8333 9.5 17.8333C9.96023 17.8333 10.3333 17.4602 10.3333 17V12ZM15.3333 12C15.3333 11.5397 14.9602 11.1667 14.5 11.1667C14.0397 11.1667 13.6667 11.5397 13.6667 12V17C13.6667 17.4602 14.0397 17.8333 14.5 17.8333C14.9602 17.8333 15.3333 17.4602 15.3333 17V12Z" fill="#50677A"/>
</svg>
