<svg width="25" height="24" viewBox="0 0 25 24" fill="none" xmlns="http://www.w3.org/2000/svg">
<path fill-rule="evenodd" clip-rule="evenodd" d="M19.0029 4.91075L17.8244 3.73223C16.8481 2.75592 15.2652 2.75592 14.2888 3.73223L13.4678 4.55331C13.1423 4.87874 13.1423 5.40638 13.4678 5.73181L17.0033 9.26731C17.3287 9.59281 17.8564 9.59281 18.1818 9.26731L19.0029 8.44628C19.9792 7.46997 19.9792 5.88706 19.0029 4.91075ZM5.49723 18.2185L9.91665 17.3346C10.078 17.3023 10.2261 17.2231 10.3425 17.1067L15.884 11.5651C16.2094 11.2397 16.2094 10.7121 15.884 10.3866L12.3484 6.85112C12.023 6.52569 11.4953 6.52569 11.1699 6.85113L5.62843 12.3926C5.5121 12.509 5.4328 12.6571 5.40053 12.8185L4.51665 17.2379C4.40003 17.821 4.91413 18.3351 5.49723 18.2185ZM5.25 19.5C4.83579 19.5 4.5 19.8358 4.5 20.25C4.5 20.6642 4.83579 21 5.25 21H19.75C20.1642 21 20.5 20.6642 20.5 20.25C20.5 19.8358 20.1642 19.5 19.75 19.5H5.25Z" fill="#0C395B"/>
</svg>
