<svg width="24" height="24" viewBox="0 0 24 24" fill="none" xmlns="http://www.w3.org/2000/svg">
<path fill-rule="evenodd" clip-rule="evenodd" d="M12.0001 17.8327C16.3459 17.8327 18.8417 14.595 19.8319 12.9438C20.1838 12.357 20.1838 11.6417 19.8319 11.0548C18.8417 9.40369 16.3459 6.16602 12.0001 6.16602C7.6542 6.16602 5.15845 9.40369 4.16822 11.0548C3.81632 11.6417 3.81632 12.357 4.16822 12.9438C5.15845 14.595 7.6542 17.8327 12.0001 17.8327ZM14.5001 11.9993C14.5001 13.3801 13.3807 14.4993 12.0001 14.4993C10.6193 14.4993 9.50006 13.3801 9.50006 11.9993C9.50006 10.6186 10.6193 9.49935 12.0001 9.49935C13.3807 9.49935 14.5001 10.6186 14.5001 11.9993Z" fill="#0C395B"/>
</svg>
