<svg width="60" height="32" viewBox="0 0 60 32" fill="none" xmlns="http://www.w3.org/2000/svg">
<path fill-rule="evenodd" clip-rule="evenodd" d="M14.9496 25.8173H18.7674V11.7059H14.9496V25.8173Z" fill="#3180F1"/>
<path fill-rule="evenodd" clip-rule="evenodd" d="M11.1601 15.6883C10.0337 15.1349 8.23482 14.5525 6.64046 14.5379C5.19223 14.5379 4.46095 15.0474 4.46095 15.8192C4.46095 16.635 5.4848 16.8386 6.77211 17.0281L8.03002 17.2174C11.1013 17.6832 12.813 19.0523 12.813 21.4405C12.813 24.3532 10.414 26.2318 6.304 26.2318C4.37318 26.2318 1.84259 25.8676 0 24.5715L1.50629 21.688C2.72046 22.4893 4.19794 23.0717 6.33295 23.0717C8.10301 23.0717 8.95131 22.5767 8.95131 21.7466C8.95131 21.0618 8.23482 20.6833 6.59642 20.4502L5.44107 20.2902C2.16472 19.8385 0.541105 18.4115 0.541105 16.0085C0.541105 13.1107 2.79375 11.3922 6.52312 11.3922C8.79055 11.3922 10.5603 11.8143 12.4471 12.7321L11.1601 15.6883Z" fill="#3180F1"/>
<path fill-rule="evenodd" clip-rule="evenodd" d="M25.2468 18.5863C25.2468 20.6251 26.6364 22.2854 28.8156 22.2854C30.9366 22.2854 32.37 20.6832 32.37 18.5863C32.37 16.4746 30.9366 14.8727 28.8156 14.8727C26.6364 14.8727 25.2468 16.533 25.2468 18.5863ZM32.2384 13.3291V11.7564H35.9828V24.7031C35.9828 29.2318 33.0135 31.9696 28.333 31.9696C26.095 31.9696 23.7257 31.3872 22.1314 30.2658L23.4914 27.1638C24.9104 28.0958 26.4755 28.6056 28.1719 28.6056C30.5414 28.6056 32.2088 27.2949 32.2088 24.8628V23.873C31.2436 25.0524 29.8102 25.7805 27.8504 25.7805C24.3985 25.7805 21.3267 22.9114 21.3267 18.5864C21.3267 14.2464 24.3985 11.3779 27.8504 11.3779C29.8249 11.3779 31.2729 12.1351 32.2384 13.3291Z" fill="#3180F1"/>
<path fill-rule="evenodd" clip-rule="evenodd" d="M51.98 16.8826V25.8678H48.1621V18.1058C48.1621 16.0671 47.1386 14.9459 45.3978 14.9459C43.7598 14.9459 42.3994 16.0085 42.3994 18.1349V25.8678H38.5816V11.7564H42.297V13.4164C43.3062 11.9166 44.8565 11.3779 46.4656 11.3779C49.6835 11.3779 51.98 13.6057 51.98 16.8826Z" fill="#3180F1"/>
<path fill-rule="evenodd" clip-rule="evenodd" d="M59.3445 23.1611C59.3445 24.5913 58.1134 25.8172 56.7042 25.8172C55.2815 25.8172 54.0367 24.5913 54.0367 23.1611C54.0367 21.7449 55.2815 20.5326 56.7042 20.5326C58.1134 20.5326 59.3445 21.7449 59.3445 23.1611Z" fill="#3180F1"/>
<path fill-rule="evenodd" clip-rule="evenodd" d="M2.69208 0.0930649C3.8514 0.471863 5.00751 0.840169 6.18587 1.12408C7.3557 1.43323 8.53742 1.68931 9.72797 1.88304C12.1056 2.28009 14.5098 2.51062 16.9179 2.46941C19.3258 2.49374 21.7269 2.24679 24.0981 1.83362C25.2853 1.63198 26.4626 1.36799 27.6279 1.05185C28.801 0.760638 29.9518 0.385185 31.1044 0L32.2551 2.73933C30.1685 4.55668 27.6748 5.78812 25.0644 6.65475C22.4445 7.50069 19.6797 7.92846 16.9179 7.94564C14.156 7.961 11.3847 7.56578 8.75227 6.75085C6.12888 5.91479 3.61597 4.71194 1.50488 2.91983L2.69208 0.0930649Z" fill="#FAE200"/>
</svg>
