<svg width="114" height="99" viewBox="0 0 114 99" fill="none" xmlns="http://www.w3.org/2000/svg">
<path d="M47.2998 99C72.3597 99 92.6748 78.6849 92.6748 53.625C92.6748 28.5651 72.3597 8.25 47.2998 8.25C22.2399 8.25 1.9248 28.5651 1.9248 53.625C1.9248 78.6849 22.2399 99 47.2998 99Z" fill="#F4F3E4"/>
<path fill-rule="evenodd" clip-rule="evenodd" d="M88.5385 52.3052C87.6493 53.8453 88.177 55.8146 89.717 56.7037L100.075 62.6837C101.615 63.5729 103.584 63.0452 104.473 61.5051C105.362 59.965 104.835 57.9957 103.295 57.1065L92.937 51.1266C91.3969 50.2374 89.4276 50.7651 88.5385 52.3052Z" fill="#0C395B"/>
<path fill-rule="evenodd" clip-rule="evenodd" d="M91.9743 37.3844C91.7576 39.1495 93.0128 40.7561 94.7778 40.9728L106.649 42.4304C108.414 42.6471 110.02 41.3919 110.237 39.6268C110.454 37.8617 109.198 36.2552 107.433 36.0384L95.5627 34.5809C93.7976 34.3642 92.191 35.6194 91.9743 37.3844Z" fill="#0C395B"/>
<path fill-rule="evenodd" clip-rule="evenodd" d="M78.8879 62.8191C77.3636 63.735 76.8703 65.7132 77.7863 67.2375L83.946 77.4891C84.862 79.0135 86.8402 79.5067 88.3645 78.5908C89.8888 77.6749 90.3821 75.6967 89.4662 74.1723L83.3064 63.9207C82.3904 62.3964 80.4122 61.9031 78.8879 62.8191Z" fill="#0C395B"/>
<path fill-rule="evenodd" clip-rule="evenodd" d="M65.5476 67.0312C63.7704 66.9691 62.2793 68.3596 62.2172 70.1368L61.7998 82.0894C61.7378 83.8667 63.1282 85.3577 64.9055 85.4198C66.6827 85.4819 68.1738 84.0914 68.2359 82.3142L68.6532 70.3616C68.7153 68.5843 67.3249 67.0932 65.5476 67.0312Z" fill="#0C395B"/>
<g opacity="0.6">
<path opacity="0.6" fill-rule="evenodd" clip-rule="evenodd" d="M23.5396 64.9677L29.8564 71.2841L36.3701 64.7703L30.0537 58.4536L23.5396 64.9677Z" fill="#0C5086"/>
<path opacity="0.6" fill-rule="evenodd" clip-rule="evenodd" d="M2.8132 92.0105C6.56367 95.761 12.6829 95.761 16.4334 92.0105L34.9883 73.4554L21.3681 59.8354L2.8132 78.3902C-0.937454 82.1408 -0.937454 88.2599 2.8132 92.0105Z" fill="url(#paint0_linear_510_1500)"/>
<path opacity="0.6" fill-rule="evenodd" clip-rule="evenodd" d="M30.9208 10.9019C45.5553 -3.535 69.0893 -3.73259 83.724 10.9019C98.3587 25.5364 98.5563 48.8728 83.9218 63.5073C69.4849 78.1417 45.7533 78.1418 31.1186 63.7051C16.4839 49.2683 16.4839 25.5364 30.9208 10.9019Z" fill="url(#paint1_linear_510_1500)"/>
<path opacity="0.6" fill-rule="evenodd" clip-rule="evenodd" d="M36.7571 57.7787C48.2059 69.0303 66.7608 69.0303 78.0126 57.5813C89.4612 46.3299 89.2638 27.7748 77.815 16.5234C66.3662 5.27201 47.8115 5.27201 36.5597 16.7208C25.3083 27.9724 25.3083 46.5273 36.7571 57.7787Z" fill="white"/>
<path opacity="0.6" fill-rule="evenodd" clip-rule="evenodd" d="M21.3683 59.835L35.186 73.2577L29.4614 78.9819L15.8413 65.362L21.3683 59.835Z" fill="url(#paint2_linear_510_1500)"/>
<path opacity="0.6" fill-rule="evenodd" clip-rule="evenodd" d="M71.4615 49.9699C78.8696 42.562 78.8696 30.5561 71.4615 23.1482C64.0536 15.7403 52.0481 15.7403 44.64 23.1482C37.2321 30.5559 37.2321 42.562 44.64 49.9699C52.0481 57.3778 64.0536 57.3778 71.4615 49.9699Z" fill="url(#paint3_linear_510_1500)"/>
<path opacity="0.6" fill-rule="evenodd" clip-rule="evenodd" d="M62.6849 25.998C60.0666 25.998 57.9434 28.1209 57.9434 30.7396C57.9434 33.3582 60.0666 35.4811 62.6849 35.4811C65.3036 35.4811 67.4268 33.3582 67.4268 30.7396C67.4268 28.1209 65.3036 25.998 62.6849 25.998Z" fill="white"/>
</g>
<path fill-rule="evenodd" clip-rule="evenodd" d="M30.0538 58.4536L36.3702 64.7703L31.3367 69.8036L34.9886 73.4555L16.4336 92.0106C12.6832 95.7611 6.56395 95.7611 2.81348 92.0106L2.60897 91.7999C-0.935889 88.0342 -0.867719 82.0715 2.81348 78.3903L21.3684 59.8356L25.0199 63.4868L30.0538 58.4536Z" fill="#0C395B"/>
<path d="M30.9208 10.9019C45.5553 -3.535 69.0893 -3.73259 83.724 10.9019C98.3587 25.5364 98.5563 48.8728 83.9218 63.5073C69.4849 78.1417 45.7533 78.1418 31.1186 63.7051C16.4839 49.2683 16.484 25.5364 30.9208 10.9019Z" fill="#FAE200"/>
<path d="M36.596 57.7519C48.0448 69.0035 66.5997 69.0035 77.8515 57.5545C89.3001 46.3031 89.1027 27.7479 77.6539 16.4966C66.2051 5.24515 47.6503 5.24515 36.3986 16.694C25.1472 27.9456 25.1472 46.5005 36.596 57.7519Z" fill="#00BA84"/>
<mask id="mask0_510_1500" style="mask-type:alpha" maskUnits="userSpaceOnUse" x="36" y="15" width="44" height="44">
<path d="M42.7039 51.9065C34.2856 43.4884 34.2856 29.8454 42.7039 21.4273C51.1219 13.0093 64.7646 13.0093 73.1829 21.4273C81.6009 29.8451 81.6009 43.4884 73.1829 51.9065C64.7646 60.3245 51.1219 60.3245 42.7039 51.9065Z" fill="white"/>
</mask>
<g mask="url(#mask0_510_1500)">
<path d="M73.1833 51.9065C81.6016 43.4884 81.6016 29.8454 73.1833 21.4273C64.7653 13.0093 51.1226 13.0093 42.7043 21.4273C34.2863 29.8451 34.2863 43.4884 42.7043 51.9065C51.1226 60.3245 64.7653 60.3245 73.1833 51.9065Z" fill="#F4F3E4"/>
</g>
<path d="M57.081 59.8094C69.5796 59.8094 79.7117 49.6773 79.7117 37.1786C79.7117 24.68 69.5796 14.5479 57.081 14.5479C44.5823 14.5479 34.4502 24.68 34.4502 37.1786C34.4502 49.6773 44.5823 59.8094 57.081 59.8094Z" stroke="#60E0B1" stroke-width="4.29505"/>
<path fill-rule="evenodd" clip-rule="evenodd" d="M71.5268 27.689C73.2734 33.6366 71.8342 40.3323 67.1339 44.9733C60.3609 51.8972 49.1918 51.8972 42.3002 45.0927L42.356 45.1482C42.8906 45.8842 43.4917 46.5861 44.1593 47.2453C50.854 53.8555 61.704 53.8555 68.2835 47.1293C73.4806 41.9978 74.5735 34.2804 71.6703 27.9921L71.5268 27.689Z" fill="#0C395B"/>
<path d="M111.4 95.3619C109.844 96.8694 107.691 97.6875 105.509 97.6021C101.251 97.4372 97.9491 94.0004 97.6993 89.7629C97.6654 89.2768 97.6578 88.7983 97.6736 88.3281C97.7411 86.3682 98.2188 84.5493 98.9139 82.9186C99.7403 80.9796 100.874 79.3072 101.99 77.9812C103.331 76.3883 104.646 75.2961 105.37 74.8431C105.73 74.6186 105.943 74.5513 105.944 74.6579C105.944 74.6663 105.943 74.6757 105.94 74.686C105.822 79.567 109.062 82.6436 111.409 85.3537C112.736 86.8855 113.777 88.3003 113.766 89.8577C113.757 91.1061 113.45 92.2834 112.913 93.3263C112.522 94.0842 112.009 94.7711 111.4 95.3619Z" fill="url(#paint4_linear_510_1500)"/>
<defs>
<linearGradient id="paint0_linear_510_1500" x1="17.4942" y1="59.8354" x2="17.4942" y2="94.8234" gradientUnits="userSpaceOnUse">
<stop stop-color="#65C6F5"/>
<stop offset="1" stop-color="#4096DB"/>
</linearGradient>
<linearGradient id="paint1_linear_510_1500" x1="57.4585" y1="74.335" x2="85.5775" y2="-5.95678" gradientUnits="userSpaceOnUse">
<stop stop-color="#4AAFDB"/>
<stop offset="1" stop-color="white"/>
</linearGradient>
<linearGradient id="paint2_linear_510_1500" x1="25.5137" y1="78.7872" x2="32.6952" y2="58.443" gradientUnits="userSpaceOnUse">
<stop stop-color="#4AAFDB"/>
<stop offset="1" stop-color="white"/>
</linearGradient>
<linearGradient id="paint3_linear_510_1500" x1="58.0508" y1="55.5258" x2="72.3928" y2="14.4779" gradientUnits="userSpaceOnUse">
<stop stop-color="#4AAFDB"/>
<stop offset="1" stop-color="white"/>
</linearGradient>
<linearGradient id="paint4_linear_510_1500" x1="105.716" y1="74.6084" x2="105.716" y2="97.6082" gradientUnits="userSpaceOnUse">
<stop stop-color="#FDF300"/>
<stop offset="1" stop-color="#FAE200"/>
</linearGradient>
</defs>
</svg>
