<?xml version="1.0" encoding="UTF-8"?>
<svg width="115px" height="119px" viewBox="0 0 115 119" version="1.1" xmlns="http://www.w3.org/2000/svg" xmlns:xlink="http://www.w3.org/1999/xlink">
    <title>Group 8</title>
    <defs>
        <linearGradient x1="-86.3678658%" y1="153.218571%" x2="317.787873%" y2="-167.617641%" id="linearGradient-1">
            <stop stop-color="#8D00DB" offset="0%"></stop>
            <stop stop-color="#FC54FF" offset="100%"></stop>
        </linearGradient>
        <linearGradient x1="-68.8848907%" y1="139.728503%" x2="331.005656%" y2="-177.476675%" id="linearGradient-2">
            <stop stop-color="#FC54FF" offset="0%"></stop>
            <stop stop-color="#FEADFF" offset="52.82%"></stop>
            <stop stop-color="#FFFFFF" offset="100%"></stop>
        </linearGradient>
        <linearGradient x1="-132.559306%" y1="81.9794634%" x2="68.3366122%" y2="46.6939304%" id="linearGradient-3">
            <stop stop-color="#FC54FF" offset="0%"></stop>
            <stop stop-color="#FD77FF" offset="10.22%"></stop>
            <stop stop-color="#FDA0FF" offset="24.31%"></stop>
            <stop stop-color="#FEC3FF" offset="38.75%"></stop>
            <stop stop-color="#FEDDFF" offset="53.38%"></stop>
            <stop stop-color="#FFF0FF" offset="68.27%"></stop>
            <stop stop-color="#FFFBFF" offset="83.59%"></stop>
            <stop stop-color="#FFFFFF" offset="100%"></stop>
        </linearGradient>
    </defs>
    <g id="Upload-Document" stroke="none" stroke-width="1" fill="none" fill-rule="evenodd">
        <g id="Upload-Document_Assign-Only-Others_Add-Signer" transform="translate(-194.000000, -345.000000)">
            <g id="Group-8" transform="translate(194.000000, 345.000000)">
                <circle id="Oval" fill="#F4F3E4" cx="57.5" cy="61.5" r="57.5"></circle>
                <g id="Group-28" transform="translate(22.000000, 0.000000)">
                    <path d="M83.2926086,46.0383514 C76.3749386,46.0059514 69.4572686,45.9813814 62.5395986,45.9651814 C62.5487786,51.4661614 62.5390586,56.9671414 62.5104386,62.4681214 C68.0367986,62.4270814 73.5631586,62.3698414 79.0897886,62.2964014 C81.3783086,62.2640014 83.2539986,60.4226014 83.2701986,58.1883514 C83.2985486,54.1383514 83.3061086,50.0883514 83.2926086,46.0383514 L83.2926086,46.0383514 Z" id="Path" fill="url(#linearGradient-1)" fill-rule="nonzero"></path>
                    <path d="M83.2926086,46.0383514 C76.3749386,46.0059514 69.4572686,45.9813814 62.5395986,45.9651814 C62.5487786,51.4661614 62.5390586,56.9671414 62.5104386,62.4681214 C68.0367986,62.4270814 73.5631586,62.3698414 79.0897886,62.2964014 C81.3783086,62.2640014 83.2539986,60.4226014 83.2701986,58.1883514 C83.2985486,54.1383514 83.3061086,50.0883514 83.2926086,46.0383514 L83.2926086,46.0383514 Z" id="Path" fill="#01855F" fill-rule="nonzero"></path>
                    <path d="M83.1886586,33.8883514 C76.2882686,33.7549714 69.3878786,33.6548014 62.4874886,33.5878414 C62.5247486,39.0888214 62.5431086,44.5898014 62.5428386,50.0910514 C68.0778386,50.0905114 73.6128386,50.0899714 79.1478386,50.0891614 C81.4404086,50.0870014 83.3001686,48.2731414 83.2926316,46.0386214 C83.2788386,41.9883514 83.2442786,37.9383514 83.1886586,33.8883514 L83.1886586,33.8883514 Z" id="Path" fill="url(#linearGradient-2)" fill-rule="nonzero"></path>
                    <path d="M83.1886586,33.8883514 C76.2882686,33.7549714 69.3878786,33.6548014 62.4874886,33.5878414 C62.5247486,39.0888214 62.5431086,44.5898014 62.5428386,50.0910514 C68.0778386,50.0905114 73.6128386,50.0899714 79.1478386,50.0891614 C81.4404086,50.0870014 83.3001686,48.2731414 83.2926316,46.0386214 C83.2788386,41.9883514 83.2442786,37.9383514 83.1886586,33.8883514 L83.1886586,33.8883514 Z" id="Path" fill="#00BA84" fill-rule="nonzero"></path>
                    <path d="M64.6625932,7.00776526 C69.1936174,7.14827982 73.724233,7.33022085 78.2533004,7.55351548 C78.7443416,7.5782123 79.1880762,7.81413421 79.5193247,8.14913939 C79.8475273,8.48106415 80.0771639,8.92188422 80.0942792,9.40524755 C80.3785202,17.5779169 80.5765455,25.7503168 80.6889041,33.9233891 C80.6945104,34.3233639 80.5324665,34.6829633 80.2671248,34.9416271 C79.9761189,35.2253092 79.5682408,35.3871794 79.1248445,35.3819086 C74.4155638,35.3204455 69.7064789,35.2705698 64.9980001,35.2322069 C64.9407678,25.8234488 64.8286454,16.4146907 64.6625932,7.00776526 Z" id="Path" stroke="#60E0B1" stroke-width="5" fill="#60E0B1"></path>
                    <path d="M64.6625932,7.00776526 C69.1936174,7.14827982 73.724233,7.33022085 78.2533004,7.55351548 C78.7443416,7.5782123 79.1880762,7.81413421 79.5193247,8.14913939 C79.8475273,8.48106415 80.0771639,8.92188422 80.0942792,9.40524755 C80.3785202,17.5779169 80.5765455,25.7503168 80.6889041,33.9233891 C80.6945104,34.3233639 80.5324665,34.6829633 80.2671248,34.9416271 C79.9761189,35.2253092 79.5682408,35.3871794 79.1248445,35.3819086 C74.4155638,35.3204455 69.7064789,35.2705698 64.9980001,35.2322069 C64.9407678,25.8234488 64.8286454,16.4146907 64.6625932,7.00776526 Z" id="Path" stroke="#60E0B1" stroke-width="5"></path>
                    <path d="M70.1333486,0.598701449 C63.3833486,0.314931449 56.6333486,0.132141449 49.8833486,0.0500614487 C50.1006986,26.4071914 50.1460586,52.7640514 50.0188886,79.1211814 C58.2522686,79.0636714 66.4856486,78.9211114 74.7187586,78.6937714 C75.1944986,54.0848914 75.0592286,29.4760114 74.3129486,4.86713145 C74.2427486,2.61236145 72.3681386,0.694011449 70.1333486,0.598701449 Z" id="Path" fill="#FAE200" fill-rule="nonzero"></path>
                    <path d="M49.8833486,0.0500614487 C37.6442486,-0.0987085513 25.4048786,0.0840814487 13.1657786,0.598701449 C6.4724786,0.895701449 0.795458597,6.67910145 0.572438597,13.3683514 C-0.193011403,37.8287314 -0.190851403,62.2891114 0.579188597,86.7494914 C18.4080986,87.5481514 36.2367386,87.8267914 54.0656486,87.5854114 C54.3240386,59.8080814 54.2964986,32.0307514 53.9824886,4.25342145 C53.9546786,1.96679145 52.1181386,0.0776014487 49.8833486,0.0500614487 Z" id="Path" fill="#FAE200" fill-rule="nonzero"></path>
                    <path d="M70.3501586,91.1051314 C68.3427086,89.8088614 66.3263486,88.4980114 64.3026986,87.1750114 C66.3730586,85.7513014 68.4485486,84.3262414 70.5278186,82.9022614 C72.7941986,82.8382714 74.6739386,80.9493514 74.7184886,78.6943114 C74.7630386,76.4390014 72.9453986,74.6540314 70.6660586,74.6993914 C65.1650786,74.8133314 59.6638286,74.8946014 54.1628486,74.9437414 C54.1115486,83.2276114 54.0351386,91.5117514 53.9330786,99.7956214 C59.3330786,99.6978814 64.7330786,99.5353414 70.1330786,99.3082714 C72.3678686,99.2126914 74.2427486,97.2946114 74.3126786,95.0395714 C74.3828786,92.7839914 72.6054686,91.0284514 70.3501586,91.1051314 Z" id="Path" fill="#FFF294"></path>
                    <path d="M54.0267686,91.5114814 C52.0004186,90.1614814 49.9665086,88.8006814 47.9258486,87.4317814 C49.9794686,86.0348014 52.0390286,84.6326914 54.1034486,83.2276114 C56.3698286,83.1998014 58.2290486,81.3184414 58.2522118,79.0355914 C58.2749486,76.7527414 56.4424586,74.9240314 54.1631186,74.9434714 C40.3928486,75.0663214 26.6223086,74.9864014 12.8520386,74.7037114 C5.9192486,74.5805914 0.237908597,79.9665514 0.580808597,86.7497614 C0.915608597,93.3374914 6.5529386,99.0150514 13.1657786,99.3082714 C26.7548786,99.8795914 40.3442486,100.042131 53.9333486,99.7956214 C56.1684086,99.7545814 58.0125086,97.8578314 58.0484186,95.5752514 C58.0843286,93.2918614 56.2820786,91.4785414 54.0267686,91.5114814 L54.0267686,91.5114814 Z" id="Path" fill="#FFF294"></path>
                    <path d="M20.9830886,83.0969314 C21.0208886,85.8474214 21.0632786,88.5979114 21.1102586,91.3484014 C37.5235586,91.7569114 53.9368586,91.6759114 70.3501586,91.1048614 C70.4160386,88.3705714 70.4751686,85.6362814 70.5278186,82.9019914 C54.0129986,83.3591014 37.4981786,83.4241714 20.9830886,83.0969314 L20.9830886,83.0969314 Z" id="Path" fill="url(#linearGradient-3)" fill-rule="nonzero"></path>
                    <path d="M20.9830886,83.0969314 C21.0208886,85.8474214 21.0632786,88.5979114 21.1102586,91.3484014 C37.5235586,91.7569114 53.9368586,91.6759114 70.3501586,91.1048614 C70.4160386,88.3705714 70.4751686,85.6362814 70.5278186,82.9019914 C54.0129986,83.3591014 37.4981786,83.4241714 20.9830886,83.0969314 L20.9830886,83.0969314 Z" id="Path" fill="#FFFFFF"></path>
                    <path d="M8.7607286,86.8666714 C8.8179686,89.1214414 10.6963586,91.0252114 12.9486986,91.1051314 C15.6692186,91.1996314 18.3897386,91.2809014 21.1105286,91.3486714 C23.3628686,91.4059114 25.1643086,89.5896214 25.1375786,87.3051514 C25.1105786,85.0204114 23.2521686,83.1412114 20.9833586,83.0969314 C18.2458286,83.0426614 15.5085686,82.9775914 12.7710386,82.9019914 C10.5019586,82.8409714 8.7032186,84.6113614 8.7607286,86.8666714 Z" id="Path" fill="#FFFFFF"></path>
                    <path d="M58.1097086,8.46677145 C56.7486386,8.43977145 55.3878386,8.41574145 54.0267686,8.39549145 C50.0385986,17.3546314 45.9286586,26.3839714 41.7863186,35.4241114 C45.9294686,44.4647914 50.1039386,53.5157314 54.2208986,62.5175314 C55.6032986,62.5113214 56.9854286,62.5043014 58.3678286,62.4959314 C60.6566186,62.4813514 62.5225886,60.6199714 62.5309586,58.3425214 C62.5838786,43.1231614 62.4928886,27.9035314 62.2582586,12.6841714 C62.2215386,10.4064514 60.3623186,8.51240145 58.1097086,8.46677145 L58.1097086,8.46677145 Z" id="Path" fill="#FFFFFF"></path>
                    <path d="M17.0297486,8.66981145 C14.7774086,8.73839145 12.9052286,10.6397314 12.8547386,12.9031414 C12.5269586,28.0331314 12.4000586,43.1631214 12.4737686,58.2928414 C12.4851086,60.5565214 14.3551286,62.4127714 16.6439186,62.4341014 C29.1694886,62.545182 41.6950586,62.5731514 54.2206286,62.5169914 C54.2767886,44.4764014 54.2119886,26.4355414 54.0267686,8.39495145 C41.6945186,8.21027145 29.3622686,8.30180145 17.0297486,8.66981145 L17.0297486,8.66981145 Z" id="Path" fill="#FFFFFF"></path>
                    <path d="M50.0532843,29.0796514 C50.0812586,35.9471014 44.5135886,41.5058614 37.6383086,41.5145014 C30.7630286,41.5153114 25.2012986,35.9827414 25.2520586,29.1385114 C25.3068686,22.2959014 30.8869586,16.6426414 37.6790786,16.6125841 C44.4711986,16.5870214 50.0205086,22.2138214 50.0532843,29.0796514 Z" id="Path" fill="#0C395B"></path>
                    <path d="M41.7863186,33.2101114 C34.9223786,33.2055214 29.3800886,27.6767314 29.4357086,20.8187314 C29.4381386,20.4769114 29.4581186,20.1391414 29.4872786,19.8040714 C26.9214686,22.1085214 25.2774386,25.4449114 25.2520586,29.1385114 C25.2012986,35.9830114 30.7630286,41.5155814 37.6383086,41.5145014 C44.1706886,41.5066714 49.5204686,36.4852114 50.0121386,30.0948514 C47.8286486,32.0318314 44.9466686,33.2101114 41.7863186,33.2101114 L41.7863186,33.2101114 Z" id="Path" fill="#0C395B"></path>
                    <path d="M58.3856486,55.9195414 C57.8326886,53.1331414 56.3344586,50.6839714 54.2400686,48.9065614 C51.4731086,50.6810014 48.7045286,52.4613814 45.9370286,54.2417614 C48.7034486,55.6236214 51.4687886,57.0030514 54.2314286,58.3754614 C54.9347786,58.3733014 55.6378586,58.3711414 56.3412086,58.3687114 C57.6369386,58.3635814 58.6370186,57.1850314 58.3856486,55.9195414 L58.3856486,55.9195414 Z" id="Path" fill="#0C395B"></path>
                    <path d="M46.1784086,45.9416914 C40.4835686,45.9387214 34.7887286,45.9414214 29.0936186,45.9495214 C23.0574986,45.9630214 18.0098486,50.2481914 16.8877286,55.8914614 C16.6377086,57.1502014 17.6391386,58.3255114 18.9348686,58.3330714 C30.7003886,58.3965214 42.4659086,58.4108314 54.2314286,58.3754614 C54.2379086,55.2191614 54.2408786,52.0628614 54.2401991,48.9065614 C52.0671086,47.0627314 49.2528986,45.9433114 46.1784086,45.9416914 L46.1784086,45.9416914 Z" id="Path" fill="#0C395B"></path>
                </g>
            </g>
        </g>
    </g>
</svg>