<svg width="96" height="99" viewBox="0 0 96 99" fill="none" xmlns="http://www.w3.org/2000/svg">
<path d="M48.1466 98.6422C73.1159 98.6422 93.3576 78.4006 93.3576 53.4312C93.3576 28.4619 73.1159 8.22021 48.1466 8.22021C23.1772 8.22021 2.93555 28.4619 2.93555 53.4312C2.93555 78.4006 23.1772 98.6422 48.1466 98.6422Z" fill="#F4F3E4"/>
<g opacity="0.6">
<path opacity="0.6" fill-rule="evenodd" clip-rule="evenodd" d="M24.4722 64.7327L30.7662 71.0263L37.2563 64.536L30.9627 58.2422L24.4722 64.7327Z" fill="#0C5086"/>
<path opacity="0.6" fill-rule="evenodd" clip-rule="evenodd" d="M3.82059 91.6779C7.5575 95.4149 13.6546 95.4149 17.3915 91.6779L35.8794 73.1899L22.3085 59.6191L3.82059 78.1068C0.0834885 81.8439 0.0834885 87.9408 3.82059 91.6779Z" fill="url(#paint0_linear_478_3783)"/>
<path opacity="0.6" fill-rule="evenodd" clip-rule="evenodd" d="M31.8265 10.8625C46.4081 -3.52222 69.857 -3.7191 84.4388 10.8625C99.0206 25.4441 99.2175 48.6962 84.6359 63.2778C70.2512 77.8594 46.6053 77.8594 32.0236 63.4748C17.4418 49.0903 17.4418 25.4441 31.8265 10.8625Z" fill="url(#paint1_linear_478_3783)"/>
<path opacity="0.6" fill-rule="evenodd" clip-rule="evenodd" d="M37.6419 57.5699C49.0494 68.7809 67.5372 68.7809 78.7484 57.3732C90.1556 46.1625 89.9589 27.6744 78.5515 16.4637C67.144 5.25297 48.6564 5.25297 37.4452 16.6604C26.2345 27.8713 26.2345 46.3592 37.6419 57.5699Z" fill="white"/>
<path opacity="0.6" fill-rule="evenodd" clip-rule="evenodd" d="M22.3083 59.6187L36.0762 72.9929L30.3723 78.6964L16.8013 65.1257L22.3083 59.6187Z" fill="url(#paint2_linear_478_3783)"/>
<path opacity="0.6" fill-rule="evenodd" clip-rule="evenodd" d="M72.2208 49.7894C79.6022 42.4082 79.6022 30.4458 72.2208 23.0647C64.8398 15.6835 52.8776 15.6835 45.4962 23.0647C38.1152 30.4455 38.1152 42.4082 45.4962 49.7894C52.8776 57.1705 64.8398 57.1705 72.2208 49.7894Z" fill="url(#paint3_linear_478_3783)"/>
<path opacity="0.6" fill-rule="evenodd" clip-rule="evenodd" d="M63.476 25.9043C60.8671 25.9043 58.7516 28.0195 58.7516 30.6287C58.7516 33.2379 60.8671 35.3531 63.476 35.3531C66.0852 35.3531 68.2007 33.2379 68.2007 30.6287C68.2007 28.0195 66.0852 25.9043 63.476 25.9043Z" fill="white"/>
</g>
<path fill-rule="evenodd" clip-rule="evenodd" d="M30.9628 58.2422L37.2564 64.536L32.2411 69.5512L35.8797 73.1899L17.3918 91.6779C13.6549 95.4149 7.5578 95.4149 3.82089 91.6779L3.61712 91.4679C0.0850728 87.7158 0.152997 81.7747 3.82089 78.1068L22.3088 59.6191L25.9471 63.2572L30.9628 58.2422Z" fill="#0C395B"/>
<path d="M31.764 10.8625C46.3456 -3.52222 69.7945 -3.7191 84.3763 10.8625C98.9581 25.4441 99.155 48.6962 84.5734 63.2778C70.1887 77.8594 46.5428 77.8594 31.9611 63.4748C17.3793 49.0903 17.3793 25.4441 31.764 10.8625Z" fill="#FAE200"/>
<mask id="mask0_478_3783" style="mask-type:alpha" maskUnits="userSpaceOnUse" x="35" y="14" width="46" height="46">
<path d="M42.1689 52.606C33.3617 43.799 33.3617 29.5256 42.1689 20.7185C50.9759 11.9115 65.249 11.9115 74.0562 20.7185C82.8632 29.5253 82.8632 43.799 74.0562 52.606C65.249 61.413 50.9759 61.413 42.1689 52.606Z" fill="white"/>
</mask>
<g mask="url(#mask0_478_3783)">
<path d="M74.0562 52.606C82.8634 43.799 82.8634 29.5256 74.0562 20.7185C65.2492 11.9115 50.9761 11.9115 42.1689 20.7185C33.3619 29.5253 33.3619 43.799 42.1689 52.606C50.9761 61.413 65.2492 61.413 74.0562 52.606Z" fill="#F4F3E4"/>
<path fill-rule="evenodd" clip-rule="evenodd" d="M72.2277 14.8179C81.5664 14.8179 89.1389 22.3896 89.1389 31.7296C89.1389 41.0696 81.5664 48.6414 72.2277 48.6414C62.888 48.6414 55.3154 41.0696 55.3154 31.7296C55.3154 22.3896 62.888 14.8179 72.2277 14.8179Z" fill="#0C395B"/>
</g>
<path d="M37.5804 57.4898C48.9879 68.7008 67.4757 68.7008 78.6868 57.2932C90.0941 46.0824 89.8974 27.5944 78.4899 16.3836C67.0825 5.17289 48.5948 5.17289 37.3837 16.5803C26.173 27.7913 26.173 46.2791 37.5804 57.4898Z" stroke="#00BA84" stroke-width="6"/>
<path d="M58.5 61C71.7548 61 82.5 50.2548 82.5 37C82.5 23.7452 71.7548 13 58.5 13C45.2452 13 34.5 23.7452 34.5 37C34.5 50.2548 45.2452 61 58.5 61Z" stroke="#60E0B1" stroke-width="5"/>
<defs>
<linearGradient id="paint0_linear_478_3783" x1="18.4486" y1="59.6191" x2="18.4486" y2="94.4806" gradientUnits="userSpaceOnUse">
<stop stop-color="#65C6F5"/>
<stop offset="1" stop-color="#4096DB"/>
</linearGradient>
<linearGradient id="paint1_linear_478_3783" x1="58.2683" y1="74.0664" x2="86.2856" y2="-5.93525" gradientUnits="userSpaceOnUse">
<stop stop-color="#4AAFDB"/>
<stop offset="1" stop-color="white"/>
</linearGradient>
<linearGradient id="paint2_linear_478_3783" x1="26.4387" y1="78.5024" x2="33.5944" y2="58.2317" gradientUnits="userSpaceOnUse">
<stop stop-color="#4AAFDB"/>
<stop offset="1" stop-color="white"/>
</linearGradient>
<linearGradient id="paint3_linear_478_3783" x1="58.8586" y1="55.3252" x2="73.1487" y2="14.4256" gradientUnits="userSpaceOnUse">
<stop stop-color="#4AAFDB"/>
<stop offset="1" stop-color="white"/>
</linearGradient>
</defs>
</svg>
